<?xml version="1.0" encoding="UTF-8"?>
<svg id="Layer_2" data-name="Layer 2" xmlns="http://www.w3.org/2000/svg" viewBox="0 0 45.65 58.57">
  <defs>
    <style>
      .cls-1, .cls-2 {
        stroke-width: 0px;
      }

      .cls-2 {
        fill: #fff;
      }
    </style>
  </defs>
  <g id="Layer_1-2" data-name="Layer 1">
    <g>
      <path class="cls-1" d="m22.85,58.57c-7.9-8.06-14.73-16.24-19.62-25.91C-1.67,22.95-.97,14.05,5.16,7.6,12.2.19,23.25-2.07,32.58,2c11.01,4.8,15.75,15.32,11.56,26.47-4.4,11.69-12.49,20.82-21.28,30.1Zm-.03-3.75c7.68-8.45,14.72-16.65,18.73-26.96.88-2.28,1.41-4.86,1.39-7.29-.05-7.94-4.49-13.16-11.42-16.03-8.35-3.46-16.41-2.42-23.29,3.73C2.66,13.26,1.22,19.67,3.67,26.71c3.78,10.88,11.2,19.3,19.16,28.11Z"/>
      <path class="cls-2" d="m22.83,54.82c-7.96-8.81-15.38-17.24-19.16-28.11-2.44-7.04-1-13.45,4.58-18.45,6.88-6.16,14.94-7.19,23.29-3.73,6.92,2.87,11.36,8.1,11.42,16.03.02,2.44-.51,5.02-1.39,7.29-4.01,10.31-11.06,18.51-18.73,26.96Zm-.06-25.94c4.92.02,8.95-3.56,9.05-8.03.1-4.48-3.82-8.19-8.78-8.31-5.15-.12-9.22,3.53-9.17,8.22.05,4.61,3.88,8.1,8.89,8.12Z"/>
      <path class="cls-1" d="m22.77,28.89c-5.01-.02-8.84-3.52-8.89-8.12-.05-4.69,4.02-8.33,9.17-8.22,4.96.11,8.88,3.83,8.78,8.31-.1,4.47-4.13,8.05-9.05,8.03Zm6.31-8.3c-.08-3.01-3.01-5.47-6.4-5.37-3.47.1-6.26,2.66-6.15,5.64.1,2.92,3.17,5.51,6.44,5.46,3.31-.05,6.2-2.76,6.12-5.73Z"/>
      <path class="cls-2" d="m29.08,20.59c.08,2.97-2.81,5.68-6.12,5.73-3.27.05-6.33-2.54-6.44-5.46-.11-2.98,2.69-5.55,6.15-5.64,3.39-.1,6.32,2.36,6.4,5.37Z"/>
    </g>
  </g>
</svg>