<?xml version="1.0" encoding="UTF-8"?>
<svg id="Layer_2" data-name="Layer 2" xmlns="http://www.w3.org/2000/svg" viewBox="0 0 71.38 56.79">
  <defs>
    <style>
      .cls-1 {
        fill: none;
        stroke: #000;
        stroke-linecap: round;
        stroke-linejoin: round;
        stroke-width: 2px;
      }
    </style>
  </defs>
  <g id="Layer_1-2" data-name="Layer 1">
    <g>
      <path class="cls-1" d="m1.82,42.7c-1.13,2.85-.13,5.77.18,8.54.24,2.21,2.24,3.66,5.04,3.8,18.63.92,37.27.57,55.9.76,4.3.04,7.04-2.46,6.76-6.77-.24-3.71-.14-7.44-.03-11.16.18-6.21.5-12.41.71-18.62.05-1.4-.36-2.76-.59-4.12-.45-2.74-1.93-3.34-4.24-3.33-7.7.01-15.46.61-23.09-.14-11.45-1.12-22.87-.23-34.3-.57-5.39-.16-7.17,1.66-7.06,7.04.17,8.07-.66,16.17.72,24.2"/>
      <path class="cls-1" d="m48.03,10.68c0-7.32-5.07-11.1-13.01-9.19-2.43.59-4.76.67-7.11.57-5.05-.22-6.75,1.45-6.35,6.39.06.74,0,1.49,0,2.23"/>
      <path class="cls-1" d="m68.9,43.07c-8.94-.69-17.89-.95-26.83,0"/>
      <path class="cls-1" d="m27.53,42.7c-3.48,1.12-6.98.07-10.43-.11-4.98-.27-9.94-.12-14.91-.26"/>
      <path class="cls-1" d="m44.3,10.68c0-4.51-.91-5.49-5.59-5.57-4.25-.07-8.54-.33-12.67,1.1-.88,1.38-.74,2.94-.75,4.47"/>
      <path class="cls-1" d="m41.69,43.07c-.91-4.53-.92-4.56-5.59-4.83-1.11-.06-2.24-.02-3.35,0-3.49.04-4.92,1.36-4.84,4.47.06,2.58,2.54,4.37,5.59,4.11,1.11-.1,2.29-.24,3.34.03,3.04.78,4.33-.7,4.86-3.39"/>
    </g>
  </g>
</svg>