<?xml version="1.0" encoding="UTF-8"?>
<svg id="Layer_2" data-name="Layer 2" xmlns="http://www.w3.org/2000/svg" viewBox="0 0 81.06 56.21">
  <defs>
    <style>
      .cls-1 {
        fill: none;
        stroke: #000;
        stroke-linecap: round;
        stroke-linejoin: round;
        stroke-width: 2px;
      }
    </style>
  </defs>
  <g id="Layer_1-2" data-name="Layer 1">
    <g>
      <path class="cls-1" d="m70.06,31.84c-10.91-1.05-21.86-.72-32.79-.75"/>
      <path class="cls-1" d="m38.01,40.46c10.91.92,21.79,2.65,32.79,1.5"/>
      <path class="cls-1" d="m39.51,20.59c1.02,1.37,2.48.71,3.73.72,7.95.06,15.9.02,23.85.04,1.25,0,2.53-.23,3.73.37"/>
      <path class="cls-1" d="m21.62,34.09c3.76-2.99,5-6.97,4.47-11.62-.38-3.32-2.33-4.89-5.96-4.88-3.77.02-5.36,1.27-5.55,4.88-.2,3.78-.6,8.44,3.06,10.25,3.16,1.56,5.56,4.92,9.57,4.76,1.93-.08,3.02,1.37,4.06,2.64.86,1.05.64,2.54.33,3.7-.34,1.29-1.74,1.17-2.9,1.16-5.09-.03-10.19.02-15.28-.03-1.38-.01-3.22.69-3.7-1.49-.38-1.72.2-3.41,1.51-4.44,1.56-1.23,3.46-2.01,5.16-3.08.74-.46,1.74-.75,1.88-1.85"/>
      <path class="cls-1" d="m6.34,1.09C2.7,1.86,1.8,5.04,1.61,7.84c-.71,10.36-.99,20.75.24,31.12.13,1.11.02,2.25.02,3.37,0,8.9,3.06,12.55,11.93,12.67,18.88.25,37.77.3,56.64-.05,5.81-.11,8.95-2.55,9.22-8.87.39-9.11.11-18.25.1-27.37,0-3.38.66-6.71.06-10.14-.67-3.86-2.67-5.97-6.38-6.79-6.44-1.42-12.94-.47-19.39-.6-15.77-.32-31.55-.1-47.33-.1"/>
    </g>
  </g>
</svg>