<?xml version="1.0" encoding="UTF-8"?>
<svg id="Layer_2" data-name="Layer 2" xmlns="http://www.w3.org/2000/svg" viewBox="0 0 57.16 57.32">
  <defs>
    <style>
      .cls-1 {
        fill: #353638;
        stroke-width: 0px;
      }
    </style>
  </defs>
  <g id="Layer_1-2" data-name="Layer 1">
    <g>
      <path class="cls-1" d="m35.7,26.19c.16,1.74-.58,3.14-1.72,4.35-7.96,8.49-15.72,17.18-24.58,24.77-1.44,1.23-2.97,2.29-5,1.94-3.47-.61-5.4-4.09-3.86-7.31.73-1.53,1.85-2.95,3.05-4.16,7.31-7.4,14.7-14.74,22.07-22.09,1.93-1.93,4.05-3.33,6.95-2.08,2.01.87,3.16,2.31,3.1,4.58ZM5.27,54.99c1.56-.23,2.68-1.19,3.77-2.23,7.7-7.38,15.32-14.83,22.45-22.77,1.49-1.66,3.01-3.45,1.18-5.47-2.12-2.34-4.02-.59-5.65,1.05-7.62,7.64-15.23,15.28-22.81,22.96-.68.69-1.32,1.52-1.71,2.4-.89,1.99.6,4.09,2.77,4.06Z"/>
      <path class="cls-1" d="m57.16,13.56c-.61,1.45-1.94,2.19-3.18,2.35-5.04.67-7.46,3.69-8.48,8.4-.25,1.16-.52,3.02-2.34,2.81-1.6-.18-2.09-1.93-2.19-3.14-.41-5.26-3.32-7.7-8.36-8.12-1.12-.09-2.3-.5-2.47-1.85-.18-1.38.93-1.9,1.97-2.36.91-.39,1.81-.8,2.76-1.09,3.25-1,5.27-3.02,5.8-6.47C40.94,2.23,41.33-.04,43.6,0c1.83.03,2.2,2.2,2.4,3.75.56,4.27,3.44,5.92,7.14,6.96,1.6.45,3.41.87,4.02,2.85Zm-23.94-.29c5.73,1.26,9.84,3.86,10.19,10.5,1-5.97,4.23-9.48,10.35-10.5-6.09-.89-9.52-4.01-10.52-10.19-.58,6.29-4.79,8.61-10.02,10.18Z"/>
      <path class="cls-1" d="m56.89,39.49c-.12,1.27-.95,1.57-1.78,1.79-3.37.91-5.75,2.72-6.19,6.47-.1.85-.57,1.71-1.61,1.78-1.17.08-1.97-.71-2.08-1.72-.45-4-3.16-5.55-6.6-6.44-.73-.19-1.48-.54-1.55-1.4-.07-.93.8-1.25,1.46-1.45,3.71-1.16,6.69-2.88,7.49-7.21.28-1.53,1.83-1.4,2.17.11.95,4.21,3.24,6.77,7.66,7.27.39.04.73.56,1.02.79Zm-5.11.42c-2.46-.78-3.7-2.57-4.83-4.89-.8,2.89-3.28,3.55-6.22,4.94,4.22.53,5.23,3.21,6.44,5.94.03-3.16,2.4-4.41,4.62-5.99Z"/>
      <path class="cls-1" d="m26.64,9.13c.03.93-.59,1.31-1.36,1.46-2.21.45-3.38,1.84-3.84,3.97-.19.87-.58,1.76-1.63,1.68-.85-.06-1.11-.94-1.23-1.64-.37-2.2-1.56-3.57-3.8-3.91-.78-.12-1.53-.3-1.65-1.18-.13-.96.68-1.23,1.38-1.43,2.35-.64,3.84-2.14,4.47-4.46.2-.75.44-1.58,1.29-1.56.83.02,1.07.82,1.19,1.61.32,2.13,1.35,3.65,3.65,4.05.75.13,1.37.55,1.52,1.4Zm-6.65-2.37c-.75.86-1.94,1.71-1.8,2.17.28.94,1.26,1.68,1.96,2.51.63-.66,1.85-1.41,1.76-1.96-.14-.9-1.12-1.67-1.91-2.72Z"/>
    </g>
  </g>
</svg>